<svg xmlns="http://www.w3.org/2000/svg" viewBox="0 0 512 512"><title>Game</title><g id="Game"><g id="Game-2" data-name="Game"><path d="M335.8526,238.251a12.5789,12.5789,0,1,1-12.5769,12.5808A12.5776,12.5776,0,0,1,335.8526,238.251Z"/><path d="M335.8574,197.667a12.5789,12.5789,0,1,1-12.5817,12.576A12.58,12.58,0,0,1,335.8574,197.667Z"/><polygon points="173.698 211.007 160.265 211.007 160.265 226.513 144.757 226.513 144.757 239.948 160.265 239.948 160.265 255.459 173.698 255.459 173.698 239.948 189.204 239.948 189.204 226.513 173.698 226.513 173.698 211.007"/><path d="M315.5611,217.949a12.5794,12.5794,0,1,1-12.5817,12.5769A12.5811,12.5811,0,0,1,315.5611,217.949Z"/><path d="M356.1538,217.9538a12.5789,12.5789,0,1,1-12.58,12.5769A12.5759,12.5759,0,0,1,356.1538,217.9538Z"/><path d="M256.1986,61.6773c-107.3252,0-194.3213,87.0048-194.3213,194.3251,0,107.3155,87,194.32,194.3213,194.32,107.3145,0,194.3241-87.0048,194.3241-194.32C450.5227,148.6821,363.5131,61.6773,256.1986,61.6773ZM365.43,346.7618h-18.97L305.5992,281.573H205.1131l-40.8643,65.1888H145.2773a27.0711,27.0711,0,0,1-27.0691-27.08l6.0086-94.7674c0-.3043.0384-.5433.048-.8246-.0048-.3-.048-.5952-.048-.9043a57.9472,57.9472,0,0,1,57.937-57.9476c13.2748,0,22.4544,4.514,32.2233,12.0192,12.4963-3.6288,18.7162-6.7545,35.6669-7.6876h10.6166c16.95.9331,23.1744,4.0588,35.6669,7.6876,9.7747-7.5052,18.9523-12.0192,32.2176-12.0192a57.9466,57.9466,0,0,1,57.937,57.9476c0,.3091-.0375.6038-.0375.9043.0058.2813.0375.52.0375.8246l6.02,94.7674A27.0649,27.0649,0,0,1,365.43,346.7618Z"/></g></g></svg>